<?xml version="1.0" encoding="UTF-8"?>
<svg id="Layer_2" data-name="Layer 2" xmlns="http://www.w3.org/2000/svg" viewBox="0 0 33 33">
  <defs>
    <style>
      .cls-1 {
        fill: #5d203b;
        stroke: #ff3791;
        stroke-miterlimit: 10;
      }
    </style>
  </defs>
  <g id="Layer_1-2" data-name="Layer 1">
    <g>
      <path class="cls-1" d="M31.5.5H1.5C.95.5.5.95.5,1.5v13c0,.55.45,1,1,1h30c.55,0,1-.45,1-1V1.5c0-.55-.45-1-1-1ZM18.5,10h-4v-4h4v4Z"/>
      <path class="cls-1" d="M31.5,17.5H1.5c-.55,0-1,.45-1,1v13c0,.55.45,1,1,1h30c.55,0,1-.45,1-1v-13c0-.55-.45-1-1-1ZM18.5,27h-4v-4h4v4Z"/>
    </g>
  </g>
</svg>