<svg width="22" height="22" viewBox="0 0 22 22" fill="none" xmlns="http://www.w3.org/2000/svg">
<path fill-rule="evenodd" clip-rule="evenodd" d="M11 0C4.92487 0 0 4.92487 0 11C0 17.0751 4.92487 22 11 22C17.0751 22 22 17.0751 22 11C22 4.92487 17.0751 0 11 0ZM15.6976 8.19938C16.0071 7.79879 15.9333 7.2231 15.5327 6.91354C15.1321 6.60399 14.5564 6.6778 14.2469 7.0784L9.72419 12.9313L7.70913 10.6923C7.37046 10.316 6.79086 10.2855 6.41456 10.6242C6.03826 10.9629 6.00775 11.5425 6.34642 11.9188L9.09642 14.9743C9.27828 15.1764 9.54045 15.2873 9.81211 15.2771C10.0838 15.267 10.3369 15.1367 10.5031 14.9216L15.6976 8.19938Z" fill="#171617"/>
</svg>
