<svg width="19" height="18" viewBox="0 0 19 18" fill="none" xmlns="http://www.w3.org/2000/svg">
<path d="M11.25 2.25C11.25 1.42157 10.5784 0.75 9.75 0.75H8.75C7.92157 0.75 7.25 1.42157 7.25 2.25V2.96448C7.25 3.40993 6.71143 3.63301 6.39645 3.31803L5.89125 2.81283C5.30546 2.22705 4.35571 2.22705 3.76993 2.81283L3.06282 3.51994C2.47703 4.10573 2.47703 5.05547 3.06282 5.64126L3.56801 6.14645C3.88299 6.46143 3.65991 7 3.21445 7L2.5 7C1.67157 7 1 7.67157 1 8.5L1 9.5C1 10.3284 1.67157 11 2.5 11H3.21442C3.65988 11 3.88296 11.5386 3.56798 11.8536L3.06281 12.3587C2.47703 12.9445 2.47703 13.8942 3.06281 14.48L3.76992 15.1871C4.35571 15.7729 5.30545 15.7729 5.89124 15.1871L6.39645 14.6819C6.71143 14.367 7.25 14.59 7.25 15.0355V15.75C7.25 16.5784 7.92157 17.25 8.75 17.25H9.75C10.5784 17.25 11.25 16.5784 11.25 15.75V15.0355C11.25 14.5901 11.7886 14.367 12.1036 14.682L12.6088 15.1872C13.1945 15.773 14.1443 15.773 14.7301 15.1872L15.4372 14.4801C16.023 13.8943 16.023 12.9446 15.4372 12.3588L14.932 11.8536C14.617 11.5386 14.8401 11 15.2855 11H16C16.8284 11 17.5 10.3284 17.5 9.5V8.5C17.5 7.67157 16.8284 7 16 7L15.2855 7C14.84 7 14.617 6.46143 14.9319 6.14645L15.4372 5.6412C16.023 5.05541 16.023 4.10567 15.4372 3.51988L14.7301 2.81277C14.1443 2.22699 13.1945 2.22699 12.6088 2.81277L12.1036 3.31798C11.7886 3.63296 11.25 3.40988 11.25 2.96442V2.25Z" stroke="#ACA7AC" stroke-width="1.5" stroke-linejoin="round"/>
<path d="M12 9C12 10.5188 10.7688 11.75 9.25 11.75C7.73122 11.75 6.5 10.5188 6.5 9C6.5 7.48122 7.73122 6.25 9.25 6.25C10.7688 6.25 12 7.48122 12 9Z" stroke="#ACA7AC" stroke-width="1.5" stroke-linejoin="round"/>
</svg>
