<svg width="22" height="22" viewBox="0 0 22 22" fill="none" xmlns="http://www.w3.org/2000/svg">
<path fill-rule="evenodd" clip-rule="evenodd" d="M11 0C4.92487 0 0 4.92487 0 11C0 17.0751 4.92487 22 11 22C17.0751 22 22 17.0751 22 11C22 4.92487 17.0751 0 11 0ZM7.67596 6.3796C7.31798 6.02162 6.73758 6.02162 6.3796 6.3796C6.02162 6.73758 6.02162 7.31798 6.3796 7.67596L9.70364 11L6.3796 14.324C6.02162 14.682 6.02162 15.2624 6.3796 15.6204C6.73758 15.9784 7.31798 15.9784 7.67596 15.6204L11 12.2964L14.324 15.6204C14.682 15.9784 15.2624 15.9784 15.6204 15.6204C15.9784 15.2624 15.9784 14.682 15.6204 14.324L12.2964 11L15.6204 7.67596C15.9784 7.31798 15.9784 6.73758 15.6204 6.3796C15.2624 6.02162 14.682 6.02162 14.324 6.3796L11 9.70364L7.67596 6.3796Z" fill="#ACA7AC"/>
</svg>
